[Header]
FileType HTR
DataType HTRS
FileVersion 1
NumSegments 64
NumFrames 3
DataFrameRate 24
EulerRotationOrder ZYX
CalibrationUnits mm
RotationUnits Degrees
GlobalAxisofGravity Y
BoneLengthAxis Y
ScaleFactor 1.0
[SegmentNames&Hierarchy]
Hips	GLOBAL
Spine	Hips
Spine1	Spine
Spine2	Spine1
Neck	Spine2
Head	Neck
LeftEye	Head
RightEye	Head
LeftShoulder	Spine2
LeftArm	LeftShoulder
LeftForeArm	LeftArm
LeftHand	LeftForeArm
LeftHandThumb1	LeftHand
LeftHandThumb2	LeftHandThumb1
LeftHandThumb3	LeftHandThumb2
LeftHandThumb4	LeftHandThumb3
LeftHandIndex1	LeftHand
LeftHandIndex2	LeftHandIndex1
LeftHandIndex3	LeftHandIndex2
LeftHandIndex4	LeftHandIndex3
LeftHandMiddle1	LeftHand
LeftHandMiddle2	LeftHandMiddle1
LeftHandMiddle3	LeftHandMiddle2
LeftHandMiddle4	LeftHandMiddle3
LeftHandRing1	LeftHand
LeftHandRing2	LeftHandRing1
LeftHandRing3	LeftHandRing2
LeftHandRing4	LeftHandRing3
LeftHandPinky1	LeftHand
LeftHandPinky2	LeftHandPinky1
LeftHandPinky3	LeftHandPinky2
LeftHandPinky4	LeftHandPinky3
RightShoulder	Spine2
RightArm	RightShoulder
RightForeArm	RightArm
RightHand	RightForeArm
RightHandPinky1	RightHand
RightHandPinky2	RightHandPinky1
RightHandPinky3	RightHandPinky2
RightHandPinky4	RightHandPinky3
RightHandRing1	RightHand
RightHandRing2	RightHandRing1
RightHandRing3	RightHandRing2
RightHandRing4	RightHandRing3
RightHandMiddle1	RightHand
RightHandMiddle2	RightHandMiddle1
RightHandMiddle3	RightHandMiddle2
RightHandMiddle4	RightHandMiddle3
RightHandIndex1	RightHand
RightHandIndex2	RightHandIndex1
RightHandIndex3	RightHandIndex2
RightHandIndex4	RightHandIndex3
RightHandThumb1	RightHand
RightHandThumb2	RightHandThumb1
RightHandThumb3	RightHandThumb2
RightHandThumb4	RightHandThumb3
LeftUpLeg	Hips
LeftLeg	LeftUpLeg
LeftFoot	LeftLeg
LeftToeBase	LeftFoot
RightUpLeg	Hips
RightLeg	RightUpLeg
RightFoot	RightLeg
RightToeBase	RightFoot
[BasePosition]
Hips	0	0	0	0	0	0	1
Spine	0	0	0	0	0	0	1
Spine1	0	0	0	0	0	0	1
Spine2	0	0	0	0	0	0	1
Neck	0	0	0	0	0	0	1
Head	0	0	0	0	0	0	1
LeftEye	0	0	0	0	0	0	1
RightEye	0	0	0	0	0	0	1
LeftShoulder	0	0	0	0	0	0	1
LeftArm	0	0	0	0	0	0	1
LeftForeArm	0	0	0	0	0	0	1
LeftHand	0	0	0	0	0	0	1
LeftHandThumb1	0	0	0	0	0	0	1
LeftHandThumb2	0	0	0	0	0	0	1
LeftHandThumb3	0	0	0	0	0	0	1
LeftHandThumb4	0	0	0	0	0	0	1
LeftHandIndex1	0	0	0	0	0	0	1
LeftHandIndex2	0	0	0	0	0	0	1
LeftHandIndex3	0	0	0	0	0	0	1
LeftHandIndex4	0	0	0	0	0	0	1
LeftHandMiddle1	0	0	0	0	0	0	1
LeftHandMiddle2	0	0	0	0	0	0	1
LeftHandMiddle3	0	0	0	0	0	0	1
LeftHandMiddle4	0	0	0	0	0	0	1
LeftHandRing1	0	0	0	0	0	0	1
LeftHandRing2	0	0	0	0	0	0	1
LeftHandRing3	0	0	0	0	0	0	1
LeftHandRing4	0	0	0	0	0	0	1
LeftHandPinky1	0	0	0	0	0	0	1
LeftHandPinky2	0	0	0	0	0	0	1
LeftHandPinky3	0	0	0	0	0	0	1
LeftHandPinky4	0	0	0	0	0	0	1
RightShoulder	0	0	0	0	0	0	1
RightArm	0	0	0	0	0	0	1
RightForeArm	0	0	0	0	0	0	1
RightHand	0	0	0	0	0	0	1
RightHandPinky1	0	0	0	0	0	0	1
RightHandPinky2	0	0	0	0	0	0	1
RightHandPinky3	0	0	0	0	0	0	1
RightHandPinky4	0	0	0	0	0	0	1
RightHandRing1	0	0	0	0	0	0	1
RightHandRing2	0	0	0	0	0	0	1
RightHandRing3	0	0	0	0	0	0	1
RightHandRing4	0	0	0	0	0	0	1
RightHandMiddle1	0	0	0	0	0	0	1
RightHandMiddle2	0	0	0	0	0	0	1
RightHandMiddle3	0	0	0	0	0	0	1
RightHandMiddle4	0	0	0	0	0	0	1
RightHandIndex1	0	0	0	0	0	0	1
RightHandIndex2	0	0	0	0	0	0	1
RightHandIndex3	0	0	0	0	0	0	1
RightHandIndex4	0	0	0	0	0	0	1
RightHandThumb1	0	0	0	0	0	0	1
RightHandThumb2	0	0	0	0	0	0	1
RightHandThumb3	0	0	0	0	0	0	1
RightHandThumb4	0	0	0	0	0	0	1
LeftUpLeg	0	0	0	0	0	0	1
LeftLeg	0	0	0	0	0	0	1
LeftFoot	0	0	0	0	0	0	1
LeftToeBase	0	0	0	0	0	0	1
RightUpLeg	0	0	0	0	0	0	1
RightLeg	0	0	0	0	0	0	1
RightFoot	0	0	0	0	0	0	1
RightToeBase	0	0	0	0	0	0	1
[Hips]
1	15.57369328	957.867981	2.663596869	-10.19968891	69.54404449	-19.52593231	1.0
2	154.8155823	967.8967896	0.7160260677	-13.30478382	70.65503693	-23.72822189	1.0
3	307.0417175	984.5679321	-6.654374599	-12.66272736	73.58422852	-23.17846489	1.0
[Spine]
1	0	101.8159943	1.315000057	7.243899345	-6.510232449	3.830625057	1.0
2	0	101.8159943	1.315000057	6.45380497	-4.901553154	4.701108932	1.0
3	0	101.8159943	1.315000057	5.52010107	-2.378187895	4.128956795	1.0
[Spine1]
1	0	100.8349991	-10.00800037	2.546255112	-2.604015589	1.433112264	1.0
2	0	100.8349991	-10.00800037	2.340975285	-1.860632658	1.352864265	1.0
3	0	100.8349991	-10.00800037	2.095629215	-0.8825312257	1.053998351	1.0
[Spine2]
1	0	91	-13.73399925	2.528540373	-2.603124619	1.467289448	1.0
2	0	91	-13.73399925	2.327697277	-1.864630461	1.372174025	1.0
3	0	91	-13.73399925	2.089660645	-0.8893131614	1.061917543	1.0
[Neck]
1	0	166.7169952	-25.16200066	-1.644280434	-8.944018364	1.585883737	1.0
2	0	166.7169952	-25.16200066	-1.054865122	-9.580078125	2.232191086	1.0
3	0	166.7169952	-25.16200066	-0.216884464	-10.81973171	2.892786741	1.0
[Head]
1	0	96.17900085	16.84999847	-21.65987206	-38.18408203	18.53679276	1.0
2	0	96.17900085	16.84999847	-21.87167358	-39.73148346	20.54304695	1.0
3	0	96.17900085	16.84999847	-22.96418953	-43.85915756	23.72020721	1.0
[LeftEye]
1	30.6760006	64.09500122	92.83599854	0	0	0	1.0
2	30.6760006	64.09500122	92.83599854	0	0	0	1.0
3	30.6760006	64.09500122	92.83599854	0	0	0	1.0
[RightEye]
1	-30.6760006	64.09500122	92.83499908	0	0	0	1.0
2	-30.6760006	64.09500122	92.83499908	0	0	0	1.0
3	-30.6760006	64.09500122	92.83499908	0	0	0	1.0
[LeftShoulder]
1	45.70400238	109.4599991	-26.28000069	7.085864544	-22.5366993	-15.69362164	1.0
2	45.70400238	109.4599991	-26.28000069	5.676243782	-19.27721977	-11.86137104	1.0
3	45.70400238	109.4599991	-26.28000069	4.854262352	-18.16202354	-8.858545303	1.0
[LeftArm]
1	105.923996	-5.24600029	-22.32099915	17.34848404	15.74543285	-41.39596939	1.0
2	105.923996	-5.24600029	-22.32099915	23.66417885	26.66154099	-38.460392	1.0
3	105.923996	-5.24600029	-22.32099915	31.262043	35.06853104	-30.60642242	1.0
[LeftForeArm]
1	278.414978	-0.0009999999311	0	1.466396225e-05	-62.85878372	-0.0002204379562	1.0
2	278.414978	-0.0009999999311	0	-5.848612545e-06	-66.59237671	-0.0001937398338	1.0
3	278.414978	-0.0009999999311	0	3.605172969e-05	-71.79242706	-0.0002611255622	1.0
[LeftHand]
1	283.2879944	0	0	-4.924162388	-17.82168007	45.2458725	1.0
2	283.2879944	0	0	-16.90800285	-29.97064209	37.99673843	1.0
3	283.2879944	0	0	-25.29894066	-38.86566162	30.25385475	1.0
[LeftHandThumb1]
1	24.6609993	-15.75	26.8239994	3.418213606	1.899679184	-2.4065485	1.0
2	24.6609993	-15.75	26.8239994	3.41181159	1.894619346	-2.40750432	1.0
3	24.6609993	-15.75	26.8239994	3.325755119	1.730327368	-2.517095089	1.0
[LeftHandThumb2]
1	32.29800034	-18.64699936	18.64699936	2.955386639	15.29678535	10.18347359	1.0
2	32.29800034	-18.64699936	18.64699936	3.472012281	13.56453323	15.14441872	1.0
3	32.29800034	-18.64699936	18.64699936	4.162218094	14.0304966	20.79464722	1.0
[LeftHandThumb3]
1	26.52600098	-15.31499958	15.31499958	0.3078778088	2.390703201	-1.625265837	1.0
2	26.52600098	-15.31499958	15.31499958	0.3069900572	2.542243242	-1.862040281	1.0
3	26.52600098	-15.31499958	15.31499958	0.4856184423	1.23866725	-2.508674383	1.0
[LeftHandThumb4]
1	19.54599953	-11.28499985	11.28499985	0	0	0	1.0
2	19.54599953	-11.28499985	11.28499985	0	0	0	1.0
3	19.54599953	-11.28499985	11.28499985	0	0	0	1.0
[LeftHandIndex1]
1	91.09299469	-5.170999527	22.60099792	-0.5200043321	1.92952168	-7.131816864	1.0
2	91.09299469	-5.170999527	22.60099792	0.5185288191	-0.6353948116	3.098165751	1.0
3	91.09299469	-5.170999527	22.60099792	1.251224995	-2.440318823	11.72316837	1.0
[LeftHandIndex2]
1	36.76399994	0	0	-0.1799933165	1.696076751	-9.108913422	1.0
2	36.76399994	0	0	-0.2451729327	1.897303224	-11.18753242	1.0
3	36.76399994	0	0	-0.2887261808	2.019428968	-12.46186256	1.0
[LeftHandIndex3]
1	28.83100128	0	0	-0.04007989541	0.2781936526	-4.880013466	1.0
2	28.83100128	0	0	-0.06302796304	0.4974948764	-7.072327137	1.0
3	28.83100128	0	0	-0.08100036532	0.6297850013	-8.399772644	1.0
[LeftHandIndex4]
1	23.92700005	0	0	0	0	0	1.0
2	23.92700005	0	0	0	0	0	1.0
3	23.92700005	0	0	0	0	0	1.0
[LeftHandMiddle1]
1	95.33399963	0	0	-1.495768547	6.040103912	-15.91293716	1.0
2	95.33399963	0	0	-0.4875990748	3.576663971	-7.376684189	1.0
3	95.33399963	0	0	0.2932026684	1.687510967	0.1082454175	1.0
[LeftHandMiddle2]
1	36.98199844	0	0	-0.5083461404	2.49672842	-17.42141342	1.0
2	36.98199844	0	0	-0.5378476977	2.554586172	-18.06261063	1.0
3	36.98199844	0	0	-0.5765476227	2.628226995	-18.88391495	1.0
[LeftHandMiddle3]
1	29.50900078	0	0	-0.02248512208	0.7323175073	-4.58450985	1.0
2	29.50900078	0	0	-0.02974086627	0.8009094	-5.27735281	1.0
3	29.50900078	0	0	-0.03984604403	0.8855626583	-6.133724213	1.0
[LeftHandMiddle4]
1	28.3390007	0	0	0	0	0	1.0
2	28.3390007	0	0	0	0	0	1.0
3	28.3390007	0	0	0	0	0	1.0
[LeftHandRing1]
1	91.04499817	-0.4390000105	-18.65100098	-2.409920931	10.32324028	-22.6236496	1.0
2	91.04499817	-0.4390000105	-18.65100098	-1.61292088	8.990531921	-16.62128448	1.0
3	91.04499817	-0.4390000105	-18.65100098	-0.9053424001	8.243565559	-10.70583725	1.0
[LeftHandRing2]
1	31.54000092	0	0	-0.1765495539	1.991317153	-16.7816124	1.0
2	31.54000092	0	0	-0.207500875	2.10541153	-17.97405052	1.0
3	31.54000092	0	0	-0.2382700592	2.210385323	-19.0776825	1.0
[LeftHandRing3]
1	29.37700081	0	0	0.05969820172	0.8959763646	-9.091537476	1.0
2	29.37700081	0	0	0.05147502571	1.012394786	-10.26351452	1.0
3	29.37700081	0	0	0.04164438322	1.121046066	-11.35898876	1.0
[LeftHandRing4]
1	26.47500038	0	0	0	0	0	1.0
2	26.47500038	0	0	0	0	0	1.0
3	26.47500038	0	0	0	0	0	1.0
[LeftHandPinky1]
1	80.77799988	-4.887000084	-38.06099701	-2.328090191	13.52548218	-21.59512138	1.0
2	80.77799988	-4.887000084	-38.06099701	-1.564108014	12.62279797	-13.31995106	1.0
3	80.77799988	-4.887000084	-38.06099701	-0.8183982372	11.81257439	-6.193181038	1.0
[LeftHandPinky2]
1	36	0	0	-0.5436626077	1.963744998	-22.22170067	1.0
2	36	0	0	-0.6510674953	2.178586006	-24.62479401	1.0
3	36	0	0	-0.7509451509	2.360225916	-26.69922256	1.0
[LeftHandPinky3]
1	21.14200211	0	0	0.01238735672	0.2797187567	5.773287773	1.0
2	21.14200211	0	0	0.0110302344	0.5203754902	3.374436855	1.0
3	21.14200211	0	0	0.001829532906	0.7267217636	1.315503955	1.0
[LeftHandPinky4]
1	19.75699997	0	0	0	0	0	1.0
2	19.75699997	0	0	0	0	0	1.0
3	19.75699997	0	0	0	0	0	1.0
[RightShoulder]
1	-45.70000076	109.4620056	-26.28000069	2.734382629	-5.35775423	13.06100655	1.0
2	-45.70000076	109.4620056	-26.28000069	3.259073496	-0.6398580074	11.59572029	1.0
3	-45.70000076	109.4620056	-26.28000069	3.506105185	2.32179594	9.922869682	1.0
[RightArm]
1	-105.9280014	-5.248000145	-22.32099915	23.20689964	-12.60864449	38.12659454	1.0
2	-105.9280014	-5.248000145	-22.32099915	22.80023575	-2.145969391	43.52223969	1.0
3	-105.9280014	-5.248000145	-22.32099915	19.38832474	5.131713867	46.1126709	1.0
[RightForeArm]
1	-278.414978	0	0	-1.040468487e-05	64.44376373	-1.092371349e-05	1.0
2	-278.414978	0	0	2.324731895e-06	64.45336151	2.31511367e-05	1.0
3	-278.414978	0	0	1.791776594e-05	68.92185974	1.02748993e-06	1.0
[RightHand]
1	-283.2879944	0	0.0009999999311	30.10736847	-14.37249088	2.843819857	1.0
2	-283.2879944	0	0.0009999999311	26.32182121	-11.55639935	9.406478882	1.0
3	-283.2879944	0	0.0009999999311	27.02571106	-8.005571365	14.66362953	1.0
[RightHandPinky1]
1	-80.76699829	-4.885000229	-38.06000137	-6.939698219	-14.48705292	54.96927261	1.0
2	-80.76699829	-4.885000229	-38.06000137	-7.258461475	-12.9221344	56.03434753	1.0
3	-80.76699829	-4.885000229	-38.06000137	-7.482327938	-10.1904726	58.35420609	1.0
[RightHandPinky2]
1	-36	0	0.0009999999311	-2.722835779	-4.387922287	55.36768723	1.0
2	-36	0	0.0009999999311	-2.70002079	-4.373877048	55.09868622	1.0
3	-36	0	0.0009999999311	-2.731732607	-4.393343449	55.47206497	1.0
[RightHandPinky3]
1	-21.14200211	0	0	-1.084464431	-0.4936869144	28.45350266	1.0
2	-21.14200211	0	0	-1.070088744	-0.4717563391	28.19195747	1.0
3	-21.14200211	0	0	-1.089018583	-0.5006148219	28.53610992	1.0
[RightHandPinky4]
1	-19.75699997	0	0	0	0	0	1.0
2	-19.75699997	0	0	0	0	0	1.0
3	-19.75699997	0	0	0	0	0	1.0
[RightHandRing1]
1	-91.03599548	-0.4390000105	-18.65100098	-5.352918148	-11.10375977	44.22067642	1.0
2	-91.03599548	-0.4390000105	-18.65100098	-5.459233284	-10.86347103	45.06421661	1.0
3	-91.03599548	-0.4390000105	-18.65100098	-5.537721157	-10.41470623	45.78678513	1.0
[RightHandRing2]
1	-31.54000092	0	0	-1.070239305	-3.886364222	38.06654358	1.0
2	-31.54000092	0	0	-1.017575145	-3.8124156	37.14859772	1.0
3	-31.54000092	0	0	-0.9871013761	-3.768473625	36.60785675	1.0
[RightHandRing3]
1	-29.37700081	0	0	-0.4680958688	-0.9466881156	28.75889587	1.0
2	-29.37700081	0	0	-0.4330044687	-0.8626451492	27.84398079	1.0
3	-29.37700081	0	0	-0.4128951132	-0.8127111793	27.30316353	1.0
[RightHandRing4]
1	-26.47500038	0	0	0	0	0	1.0
2	-26.47500038	0	0	0	0	0	1.0
3	-26.47500038	0	0	0	0	0	1.0
[RightHandMiddle1]
1	-95.32500458	0	0	-3.409625769	-6.876068115	30.81147766	1.0
2	-95.32500458	0	0	-3.772522449	-5.909168243	33.56493378	1.0
3	-95.32500458	0	0	-4.305265427	-3.972570896	37.63698578	1.0
[RightHandMiddle2]
1	-36.98199844	0	0	-1.345675945	-3.73329711	32.22210312	1.0
2	-36.98199844	0	0	-1.273921013	-3.650675297	31.14001656	1.0
3	-36.98199844	0	0	-1.201297998	-3.563747406	30.02001572	1.0
[RightHandMiddle3]
1	-29.50900078	0	0	-0.5008730888	-2.337756395	22.9877739	1.0
2	-29.50900078	0	0	-0.4579039216	-2.239269018	21.90667343	1.0
3	-29.50900078	0	0	-0.4152545631	-2.13613534	20.78408813	1.0
[RightHandMiddle4]
1	-28.3390007	0	0.0009999999311	0	0	0	1.0
2	-28.3390007	0	0.0009999999311	0	0	0	1.0
3	-28.3390007	0	0.0009999999311	0	0	0	1.0
[RightHandIndex1]
1	-91.08300018	-5.167999744	22.60099792	-1.328718305	-2.625082016	15.60529327	1.0
2	-91.08300018	-5.167999744	22.60099792	-1.322627544	-1.475374699	16.22341156	1.0
3	-91.08300018	-5.167999744	22.60099792	-1.179670811	1.159273863	16.82901573	1.0
[RightHandIndex2]
1	-36.76399994	0	0	-0.4929726422	-2.503906488	17.63507271	1.0
2	-36.76399994	0	0	-0.4142267704	-2.331188917	15.76823044	1.0
3	-36.76399994	0	0	-0.3583153486	-2.198603153	14.3532505	1.0
[RightHandIndex3]
1	-28.83100128	0	0	-0.32412377	-0.467392534	17.04236031	1.0
2	-28.83100128	0	0	-0.2721384764	-0.2873676121	15.17901611	1.0
3	-28.83100128	0	0	-0.2365794331	-0.1496266872	13.76445007	1.0
[RightHandIndex4]
1	-23.92700005	0	0	0	0	0	1.0
2	-23.92700005	0	0	0	0	0	1.0
3	-23.92700005	0	0	0	0	0	1.0
[RightHandThumb1]
1	-24.64799881	-15.72700024	26.82600021	3.367321491	2.024223328	6.602470875	1.0
2	-24.64799881	-15.72700024	26.82600021	1.005619287	1.52479589	5.446878433	1.0
3	-24.64799881	-15.72700024	26.82600021	-0.9482691884	2.934261322	5.53350687	1.0
[RightHandThumb2]
1	-32.29800034	-18.64699936	18.64699936	4.891516209	-20.58415604	-11.73032284	1.0
2	-32.29800034	-18.64699936	18.64699936	4.636306286	-21.05396271	-10.97442818	1.0
3	-32.29800034	-18.64699936	18.64699936	4.232799053	-22.2594471	-11.81015205	1.0
[RightHandThumb3]
1	-26.52600098	-15.31399918	15.31399918	3.414593458	-14.10436058	-0.6364902854	1.0
2	-26.52600098	-15.31399918	15.31399918	3.051236629	-13.00245762	-0.8177213073	1.0
3	-26.52600098	-15.31399918	15.31399918	2.659354925	-11.88736153	-0.7842010856	1.0
[RightHandThumb4]
1	-19.54599953	-11.28499985	11.28499985	0	0	0	1.0
2	-19.54599953	-11.28499985	11.28499985	0	0	0	1.0
3	-19.54599953	-11.28499985	11.28499985	0	0	0	1.0
[LeftUpLeg]
1	82.07800293	-67.51699829	-15.99599934	-20.50130653	11.26405621	1.946934342	1.0
2	82.07800293	-67.51699829	-15.99599934	-37.87711334	7.003482819	4.478258133	1.0
3	82.07800293	-67.51699829	-15.99599934	-49.9003334	3.698664188	5.111958027	1.0
[LeftLeg]
1	0	-443.7049866	2.845999956	96.87253571	-2.326667786	10.22151661	1.0
2	0	-443.7049866	2.845999956	101.405365	-2.86009264	9.674702644	1.0
3	0	-443.7049866	2.845999956	94.07436371	-1.848437309	9.867010117	1.0
[LeftFoot]
1	0	-444.2789917	-29.8219986	5.62210989	7.13795805	-11.32748318	1.0
2	0	-444.2789917	-29.8219986	-0.2383123487	6.106764793	-7.920978546	1.0
3	0	-444.2789917	-29.8219986	-4.895709038	5.004163742	-6.597661972	1.0
[LeftToeBase]
1	0	-87.28699493	107.1060028	-8.134355545	8.45257091e-06	1.068372694e-05	1.0
2	0	-87.28699493	107.1060028	-4.251914501	-4.342696047e-05	1.624160541e-05	1.0
3	0	-87.28699493	107.1060028	-0.9156244993	1.56845108e-05	-6.617708095e-06	1.0
[RightUpLeg]
1	-82.07800293	-67.51699829	-15.99599934	-24.04401588	8.083803177	10.0331583	1.0
2	-82.07800293	-67.51699829	-15.99599934	-10.60924721	3.939929247	9.708914757	1.0
3	-82.07800293	-67.51699829	-15.99599934	-0.9844991565	-2.050433397	5.843702316	1.0
[RightLeg]
1	0	-443.7049866	2.861999989	40.73744965	1.750747561	-3.868113041	1.0
2	0	-443.7049866	2.861999989	28.69436455	2.983213902	-4.72260046	1.0
3	0	-443.7049866	2.861999989	21.90602112	7.138865948	-4.043697357	1.0
[RightFoot]
1	0	-444.2770081	-29.83799934	-24.33670235	-0.03734686971	-0.1238562763	1.0
2	0	-444.2770081	-29.83799934	-25.11721039	0.09891173244	2.485744953	1.0
3	0	-444.2770081	-29.83799934	-7.538419247	-0.4735406041	8.402263641	1.0
[RightToeBase]
1	0	-87.28699493	107.1060028	-1.89702785	-1.038992195e-05	-1.228637643e-06	1.0
2	0	-87.28699493	107.1060028	-3.440803766	3.915568868e-06	-7.188407835e-06	1.0
3	0	-87.28699493	107.1060028	-20.90432358	-0.8873832226	-2.991508245	1.0
[EndOfFile]
